<?xml version="1.0" encoding="UTF-8" standalone="no"?>
<!DOCTYPE svg PUBLIC "-//W3C//DTD SVG 1.1//EN" "http://www.w3.org/Graphics/SVG/1.1/DTD/svg11.dtd">
<svg version="1.1" xmlns="http://www.w3.org/2000/svg" xmlns:xlink="http://www.w3.org/1999/xlink" preserveAspectRatio="xMidYMid meet" viewBox="0 0 400 400" width="400" height="400"><defs><path d="M400 200C400 310.38 310.38 400 200 400C89.62 400 0 310.38 0 200C0 89.62 89.62 0 200 0C310.38 0 400 89.62 400 200Z" id="c1yIqqijNL"></path><path d="M375 200C375 296.59 296.59 375 200 375C103.42 375 25 296.59 25 200C25 103.42 103.42 25 200 25C296.59 25 375 103.42 375 200Z" id="a1c9epXQsV"></path><clipPath id="clipiOkmAJ3lC"><use xlink:href="#a1c9epXQsV" opacity="1"></use></clipPath><path d="M350 200C350 282.79 282.79 350 200 350C117.21 350 50 282.79 50 200C50 117.21 117.21 50 200 50C282.79 50 350 117.21 350 200Z" id="b61eFLJBqz"></path><clipPath id="clipapQAbFlXl"><use xlink:href="#b61eFLJBqz" opacity="1"></use></clipPath><path d="M325 200C325 268.99 268.99 325 200 325C131.01 325 75 268.99 75 200C75 131.01 131.01 75 200 75C268.99 75 325 131.01 325 200Z" id="c1JEEXswbG"></path><clipPath id="clipb2MRjyse9y"><use xlink:href="#c1JEEXswbG" opacity="1"></use></clipPath><path d="M300 200C300 255.19 255.19 300 200 300C144.81 300 100 255.19 100 200C100 144.81 144.81 100 200 100C255.19 100 300 144.81 300 200Z" id="hEQK83cFC"></path><clipPath id="clipa1i3MpDoBA"><use xlink:href="#hEQK83cFC" opacity="1"></use></clipPath><path d="M275 200C275 241.39 241.4 275 200 275C158.61 275 125 241.39 125 200C125 158.6 158.61 125 200 125C241.4 125 275 158.6 275 200Z" id="b4fOWQg8FJ"></path><clipPath id="clipe2qNBXCYj8"><use xlink:href="#b4fOWQg8FJ" opacity="1"></use></clipPath><path d="M191.94 177.91L195.81 179.84L201.47 181.77L206.7 180.84L210.57 178.12L216.09 179.84L221.61 182.2L228.27 188.29L231.86 193.45L234.01 200L234.58 208.5L232.72 217.24L228.49 224.76L224.19 229.49L218.1 233.72L209.71 237.3L201.76 238.95L193.66 238.52L186.42 236.94L180.69 234.58L174.74 230.71L169.94 226.27L167 222.04L164.78 217.67L163.06 213.59L162.27 208.14L162.27 203.27L163.06 198.25L164.78 193.88L167 190.3L169.01 187.51L171.09 185.28L174.46 182.99L177.9 180.84L185.92 178.48L191.94 177.91Z" id="b1uNnyZKj3"></path><path d="M195.83 160.02L195.97 160.03L196.11 160.05L196.24 160.07L196.38 160.1L196.51 160.13L196.65 160.17L196.78 160.21L196.91 160.26L197.04 160.31L197.17 160.37L197.3 160.44L197.43 160.51L197.46 160.53L197.51 160.56L197.57 160.59L197.64 160.64L197.73 160.69L197.82 160.74L197.92 160.81L198.03 160.88L198.14 160.96L198.27 161.04L198.4 161.13L198.54 161.23L198.68 161.34L198.84 161.45L198.99 161.57L199.16 161.69L199.32 161.83L199.5 161.96L199.67 162.11L199.85 162.26L200.04 162.42L200.22 162.59L200.41 162.76L200.6 162.94L200.79 163.12L200.98 163.31L201.17 163.51L201.36 163.72L201.56 163.93L201.75 164.15L201.94 164.37L202.12 164.6L202.31 164.84L202.49 165.08L202.67 165.33L202.85 165.59L203.02 165.85L203.19 166.12L203.35 166.39L203.51 166.67L203.8 166.56L204.1 166.45L204.39 166.35L204.68 166.26L204.98 166.17L205.26 166.1L205.55 166.03L205.84 165.96L206.12 165.9L206.4 165.85L206.67 165.8L206.94 165.76L207.21 165.73L207.47 165.69L207.73 165.67L207.98 165.64L208.23 165.63L208.47 165.61L208.7 165.6L208.93 165.59L209.15 165.59L209.36 165.58L209.57 165.58L209.76 165.59L209.95 165.59L210.13 165.6L210.3 165.6L210.46 165.61L210.62 165.62L210.76 165.63L210.89 165.64L211.01 165.65L211.12 165.66L211.21 165.67L211.3 165.68L211.37 165.69L211.43 165.7L211.48 165.71L211.52 165.71L211.54 165.71L211.68 165.74L211.82 165.76L211.95 165.79L212.09 165.83L212.22 165.87L212.35 165.91L212.48 165.96L212.61 166.02L212.73 166.07L212.85 166.14L212.97 166.2L213.08 166.27L213.2 166.35L213.3 166.43L213.41 166.51L213.51 166.59L213.61 166.68L213.71 166.77L213.8 166.87L213.89 166.97L213.97 167.07L214.05 167.17L214.13 167.28L214.2 167.39L214.27 167.5L214.34 167.62L214.4 167.74L214.45 167.86L214.5 167.98L214.55 168.1L214.59 168.23L214.63 168.35L214.66 168.48L214.69 168.61L214.71 168.74L214.73 168.88L214.74 169.01L214.75 169.15L214.75 169.28L214.75 169.42L214.73 169.66L214.72 169.89L214.7 170.12L214.68 170.36L214.66 170.58L214.63 170.81L214.6 171.04L214.57 171.26L214.54 171.48L214.5 171.7L214.47 171.92L214.43 172.14L214.38 172.35L214.34 172.56L214.29 172.77L214.24 172.98L214.19 173.19L214.13 173.39L214.08 173.6L214.02 173.8L213.96 174L213.89 174.19L213.82 174.39L213.76 174.58L213.68 174.77L213.61 174.96L213.53 175.15L213.45 175.33L213.37 175.52L213.29 175.7L213.2 175.88L213.12 176.06L213.03 176.23L212.93 176.4L212.84 176.58L212.74 176.74L212.64 176.91L212.54 177.08L212.43 177.24L212.32 177.4L213.07 177.56L213.81 177.73L214.55 177.93L215.28 178.14L216 178.37L216.71 178.61L217.41 178.87L218.11 179.15L218.79 179.45L219.47 179.76L220.14 180.08L220.79 180.43L221.44 180.78L222.08 181.16L222.71 181.54L223.33 181.95L223.93 182.37L224.53 182.8L225.11 183.24L225.68 183.7L226.24 184.18L226.79 184.67L227.32 185.17L227.84 185.68L228.35 186.21L228.84 186.75L229.33 187.3L229.79 187.86L230.24 188.44L230.68 189.03L231.1 189.63L231.51 190.24L231.9 190.86L232.28 191.49L232.64 192.14L232.98 192.79L233.31 193.45L233.62 194.13L233.91 194.81L234.19 195.51L234.32 195.86L234.45 196.23L234.57 196.59L234.68 196.95L234.79 197.32L234.89 197.68L234.99 198.04L235.08 198.41L235.17 198.77L235.25 199.13L235.32 199.48L235.39 199.84L235.45 200.19L235.52 200.53L235.57 200.87L235.62 201.2L235.67 201.53L235.72 201.85L235.76 202.16L235.79 202.47L235.83 202.77L235.86 203.05L235.88 203.33L235.91 203.6L235.93 203.86L235.95 204.1L235.96 204.34L235.98 204.56L235.99 204.77L236 204.96L236.01 205.14L236.01 205.31L236.02 205.46L236.02 205.59L236.03 205.71L236.03 205.81L236.03 205.9L236.03 205.96L236.03 206.01L236.03 206.04L236.02 206.72L236 207.39L235.96 208.07L235.91 208.74L235.85 209.41L235.77 210.08L235.67 210.75L235.57 211.41L235.44 212.07L235.31 212.72L235.16 213.38L234.99 214.02L234.82 214.67L234.62 215.31L234.42 215.94L234.2 216.58L233.97 217.2L233.72 217.83L233.46 218.45L233.19 219.06L232.9 219.67L232.6 220.27L232.29 220.87L231.96 221.46L231.62 222.05L231.27 222.63L230.9 223.21L230.53 223.77L230.14 224.34L229.73 224.89L229.32 225.44L228.89 225.99L228.45 226.53L227.99 227.06L227.53 227.58L227.05 228.09L226.56 228.6L226.06 229.1L225.54 229.6L225.01 230.08L224.48 230.56L223.93 231.02L223.38 231.47L222.82 231.91L222.25 232.34L221.68 232.76L221.09 233.17L220.5 233.57L219.9 233.96L219.29 234.33L218.68 234.69L218.06 235.05L217.43 235.39L216.8 235.72L216.16 236.03L215.51 236.34L214.86 236.63L214.2 236.91L213.53 237.18L212.86 237.44L212.18 237.69L211.5 237.92L210.82 238.14L210.13 238.35L209.43 238.55L208.73 238.74L208.02 238.91L207.31 239.07L206.6 239.22L205.88 239.35L205.16 239.48L204.43 239.59L203.7 239.68L202.97 239.77L202.24 239.84L201.5 239.9L200.75 239.94L200.01 239.98L199.26 240L198.51 240L197.77 240L197.02 239.98L196.28 239.95L195.54 239.9L194.8 239.84L194.07 239.77L193.34 239.69L192.61 239.59L191.88 239.48L191.16 239.36L190.45 239.22L189.73 239.07L189.03 238.91L188.32 238.74L187.62 238.56L186.93 238.36L186.24 238.15L185.55 237.93L184.87 237.7L184.2 237.45L183.53 237.2L182.86 236.93L182.21 236.65L181.55 236.35L180.91 236.05L180.27 235.73L179.63 235.4L179.01 235.07L178.39 234.72L177.77 234.35L177.17 233.98L176.57 233.6L175.98 233.2L175.39 232.79L174.82 232.37L174.25 231.95L173.69 231.51L173.14 231.05L172.59 230.59L172.06 230.12L171.53 229.64L171.02 229.15L170.52 228.65L170.03 228.14L169.55 227.63L169.08 227.11L168.63 226.58L168.19 226.04L167.76 225.5L167.34 224.95L166.94 224.4L166.55 223.84L166.17 223.27L165.8 222.7L165.45 222.12L165.11 221.53L164.78 220.94L164.47 220.35L164.17 219.74L163.88 219.14L163.61 218.53L163.35 217.91L163.1 217.29L162.86 216.66L162.64 216.03L162.44 215.4L162.24 214.76L162.06 214.12L161.9 213.47L161.74 212.82L161.61 212.17L161.48 211.51L161.37 210.85L161.28 210.19L161.19 209.52L161.13 208.85L161.07 208.18L161.03 207.51L161.01 206.83L161 206.15L161 206.13L161 206.08L161 206.01L161 205.92L161 205.82L161.01 205.7L161.01 205.56L161.02 205.4L161.02 205.23L161.03 205.04L161.04 204.84L161.06 204.62L161.07 204.4L161.09 204.15L161.11 203.9L161.13 203.63L161.15 203.36L161.18 203.07L161.21 202.77L161.25 202.47L161.29 202.15L161.33 201.83L161.37 201.5L161.42 201.16L161.48 200.81L161.54 200.46L161.6 200.11L161.67 199.75L161.74 199.38L161.82 199.02L161.9 198.65L161.99 198.27L162.08 197.9L162.19 197.52L162.29 197.15L162.4 196.77L162.52 196.4L162.65 196.02L162.78 195.65L162.92 195.28L162.99 195.11L163.06 194.93L163.13 194.75L163.2 194.58L163.28 194.4L163.35 194.23L163.43 194.06L163.51 193.88L163.59 193.71L163.67 193.54L163.75 193.36L163.83 193.19L163.91 193.02L164 192.85L164.09 192.68L164.17 192.51L164.26 192.34L164.35 192.18L164.44 192.01L164.53 191.84L164.63 191.68L164.72 191.51L164.82 191.34L164.91 191.18L165.01 191.02L165.11 190.85L165.21 190.69L165.31 190.53L165.42 190.37L165.52 190.2L165.63 190.04L165.73 189.88L165.84 189.73L165.95 189.57L166.06 189.41L166.17 189.25L166.28 189.1L166.39 188.94L166.51 188.79L166.62 188.63L166.65 188.59L166.68 188.55L166.72 188.52L166.75 188.48L166.79 188.45L166.82 188.42L166.86 188.39L166.9 188.36L166.94 188.34L166.98 188.31L167.02 188.29L167.06 188.27L167.11 188.25L167.15 188.23L167.2 188.21L167.24 188.2L167.29 188.18L167.33 188.17L167.38 188.16L167.43 188.15L167.47 188.15L167.52 188.14L167.57 188.14L167.61 188.14L167.66 188.14L167.71 188.14L167.76 188.15L167.8 188.15L167.85 188.16L167.9 188.17L167.94 188.18L167.99 188.19L168.04 188.21L168.08 188.23L168.13 188.24L168.17 188.26L168.22 188.29L168.26 188.31L168.3 188.34L168.34 188.37L168.38 188.39L168.42 188.43L168.46 188.46L168.5 188.49L168.53 188.53L168.56 188.56L168.59 188.6L168.62 188.63L168.65 188.67L168.68 188.71L168.7 188.75L168.72 188.79L168.74 188.83L168.76 188.88L168.78 188.92L168.8 188.96L168.81 189.01L168.82 189.05L168.83 189.09L168.84 189.14L168.85 189.18L168.85 189.23L168.85 189.28L168.85 189.32L168.85 189.37L168.85 189.41L168.85 189.46L168.84 189.5L168.83 189.55L168.82 189.6L168.81 189.64L168.8 189.68L168.78 189.73L168.77 189.77L168.75 189.82L168.72 189.86L168.7 189.9L168.68 189.94L168.65 189.98L168.62 190.02L168.52 190.17L168.41 190.31L168.31 190.45L168.21 190.59L168.1 190.74L168 190.88L167.9 191.03L167.81 191.17L167.71 191.32L167.61 191.46L167.52 191.61L167.42 191.76L167.33 191.91L167.24 192.06L167.15 192.21L167.06 192.36L166.97 192.51L166.88 192.66L166.8 192.81L166.71 192.96L166.63 193.12L166.54 193.27L166.46 193.42L166.38 193.58L166.3 193.73L166.22 193.89L166.14 194.04L166.07 194.2L165.99 194.36L165.92 194.51L165.84 194.67L165.77 194.83L165.7 194.99L165.63 195.15L165.56 195.31L165.49 195.47L165.43 195.63L165.36 195.79L165.3 195.95L165.23 196.11L165.1 196.45L164.98 196.79L164.87 197.14L164.76 197.49L164.66 197.83L164.56 198.18L164.47 198.53L164.38 198.88L164.3 199.23L164.22 199.57L164.15 199.91L164.08 200.25L164.02 200.59L163.96 200.92L163.91 201.25L163.86 201.57L163.81 201.89L163.77 202.2L163.73 202.5L163.7 202.8L163.67 203.08L163.64 203.36L163.61 203.63L163.59 203.89L163.57 204.14L163.55 204.37L163.53 204.6L163.52 204.81L163.51 205.01L163.5 205.19L163.49 205.36L163.48 205.52L163.48 205.66L163.48 205.78L163.47 205.89L163.47 205.98L163.47 206.05L163.47 206.1L163.47 206.14L163.47 206.15L163.5 207.44L163.59 208.73L163.74 210L163.95 211.25L164.2 212.48L164.51 213.7L164.88 214.91L165.29 216.09L165.75 217.25L166.26 218.39L166.82 219.51L167.43 220.6L168.08 221.67L168.77 222.72L169.51 223.74L170.29 224.73L171.11 225.69L171.96 226.62L172.86 227.52L173.79 228.4L174.76 229.23L175.77 230.04L176.81 230.81L177.88 231.54L178.98 232.24L180.11 232.9L181.27 233.53L182.46 234.11L183.68 234.65L184.92 235.15L186.19 235.61L187.48 236.02L188.79 236.39L190.13 236.71L191.48 236.99L192.86 237.21L194.25 237.39L195.65 237.52L197.08 237.6L198.51 237.63L199.96 237.6L201.38 237.52L202.8 237.39L204.19 237.21L205.57 236.98L206.93 236.71L208.26 236.38L209.58 236.01L210.87 235.6L212.14 235.14L213.39 234.64L214.61 234.1L215.8 233.51L216.96 232.89L218.1 232.22L219.2 231.52L220.27 230.79L221.31 230.01L222.32 229.2L223.29 228.36L224.22 227.49L225.12 226.58L225.97 225.65L226.79 224.68L227.57 223.69L228.3 222.66L229 221.62L229.64 220.54L230.25 219.44L230.8 218.32L231.31 217.18L231.77 216.01L232.18 214.82L232.54 213.62L232.85 212.39L233.1 211.15L233.3 209.9L233.45 208.62L233.53 207.34L233.56 206.04L233.56 206.01L233.56 205.97L233.56 205.91L233.56 205.83L233.56 205.74L233.56 205.63L233.55 205.5L233.55 205.36L233.54 205.21L233.53 205.04L233.52 204.86L233.51 204.67L233.5 204.46L233.49 204.25L233.47 204.02L233.45 203.78L233.43 203.54L233.4 203.28L233.37 203.01L233.34 202.74L233.31 202.46L233.27 202.17L233.23 201.87L233.19 201.57L233.14 201.26L233.09 200.95L233.03 200.63L232.97 200.31L232.91 199.98L232.84 199.66L232.77 199.33L232.69 198.99L232.61 198.66L232.52 198.32L232.43 197.99L232.33 197.65L232.22 197.32L232.11 196.99L232 196.66L231.87 196.33L231.61 195.66L231.33 195L231.03 194.36L230.71 193.72L230.38 193.1L230.03 192.48L229.66 191.88L229.28 191.28L228.88 190.7L228.47 190.13L228.04 189.57L227.6 189.02L227.14 188.49L226.67 187.97L226.19 187.46L225.69 186.96L225.18 186.48L224.66 186.01L224.12 185.55L223.58 185.11L223.02 184.68L222.45 184.26L221.86 183.86L221.27 183.48L220.67 183.11L220.05 182.75L219.43 182.41L218.79 182.09L218.15 181.78L217.49 181.49L216.83 181.21L216.16 180.95L215.48 180.71L214.79 180.48L214.1 180.28L213.39 180.09L212.68 179.91L211.97 179.76L211.24 179.62L210.51 179.5L210.47 179.54L210.43 179.58L210.39 179.62L210.34 179.65L210.3 179.69L210.26 179.73L210.21 179.77L210.17 179.8L210.13 179.84L210.08 179.87L210.04 179.91L210 179.95L209.95 179.98L209.91 180.02L209.86 180.05L209.82 180.09L209.77 180.12L209.73 180.16L209.68 180.19L209.64 180.23L209.59 180.26L209.54 180.29L209.5 180.33L209.45 180.36L209.4 180.39L209.36 180.43L209.31 180.46L209.26 180.49L209.22 180.52L209.17 180.56L209.12 180.59L209.07 180.62L209.03 180.65L208.98 180.68L208.93 180.71L208.88 180.74L208.83 180.78L208.78 180.81L208.73 180.84L208.69 180.87L208.83 180.94L208.98 181.01L209.12 181.09L209.28 181.17L209.43 181.25L209.59 181.33L209.75 181.41L209.91 181.5L210.07 181.59L210.23 181.68L210.4 181.78L210.57 181.87L210.74 181.97L210.91 182.07L211.08 182.17L211.25 182.28L211.42 182.38L211.59 182.49L211.77 182.6L211.94 182.71L212.11 182.83L212.29 182.95L212.46 183.06L212.63 183.18L212.8 183.31L212.98 183.43L213.15 183.56L213.31 183.68L213.48 183.81L213.65 183.94L213.81 184.08L213.98 184.21L214.14 184.35L214.3 184.49L214.46 184.63L214.61 184.77L214.76 184.91L214.91 185.06L215.06 185.2L215.21 185.35L215.24 185.39L215.27 185.43L215.3 185.47L215.33 185.51L215.36 185.55L215.38 185.59L215.4 185.63L215.42 185.67L215.44 185.71L215.46 185.76L215.48 185.8L215.49 185.85L215.5 185.89L215.51 185.94L215.52 185.98L215.53 186.03L215.53 186.07L215.53 186.12L215.54 186.16L215.53 186.21L215.53 186.26L215.53 186.3L215.52 186.35L215.51 186.39L215.5 186.44L215.49 186.48L215.48 186.52L215.46 186.57L215.44 186.61L215.43 186.65L215.4 186.69L215.38 186.74L215.36 186.78L215.33 186.82L215.3 186.85L215.27 186.89L215.24 186.93L215.21 186.96L215.17 187L215.14 187.03L215.08 187.08L215.03 187.11L214.98 187.15L214.92 187.18L214.87 187.21L214.82 187.24L214.76 187.26L214.71 187.28L214.66 187.3L214.6 187.31L214.55 187.32L214.5 187.33L214.44 187.34L214.39 187.34L214.34 187.34L214.29 187.34L214.24 187.34L214.19 187.33L214.14 187.33L214.09 187.32L214.05 187.31L214 187.3L213.95 187.29L213.91 187.27L213.87 187.26L213.82 187.24L213.78 187.22L213.74 187.2L213.7 187.19L213.67 187.17L213.63 187.15L213.6 187.13L213.57 187.11L213.54 187.09L213.51 187.06L213.48 187.04L213.46 187.02L213.43 187L213.41 186.98L213.39 186.96L213.2 186.77L213.01 186.58L212.81 186.4L212.6 186.21L212.39 186.03L212.18 185.86L211.96 185.68L211.74 185.51L211.51 185.35L211.29 185.18L211.06 185.02L210.83 184.86L210.6 184.71L210.37 184.56L210.14 184.41L209.9 184.27L209.67 184.13L209.45 184L209.22 183.87L209 183.74L208.77 183.62L208.56 183.5L208.34 183.38L208.13 183.27L207.93 183.17L207.73 183.07L207.53 182.97L207.35 182.88L207.17 182.79L206.99 182.71L206.83 182.63L206.67 182.56L206.52 182.49L206.38 182.43L206.25 182.37L206.13 182.32L206.02 182.27L205.92 182.23L205.83 182.19L205.76 182.16L205.65 182.19L205.54 182.22L205.43 182.25L205.33 182.28L205.22 182.31L205.11 182.34L205 182.37L204.89 182.39L204.78 182.42L204.67 182.45L204.55 182.47L204.44 182.49L204.33 182.52L204.22 182.54L204.11 182.56L203.99 182.58L203.88 182.6L203.77 182.62L203.65 182.64L203.54 182.65L203.42 182.67L203.31 182.68L203.19 182.7L203.08 182.71L202.96 182.73L202.84 182.74L202.73 182.75L202.61 182.76L202.49 182.77L202.38 182.78L202.26 182.79L202.14 182.79L202.02 182.8L201.9 182.8L201.79 182.81L201.67 182.81L201.55 182.82L201.43 182.82L201.31 182.82L201.19 182.82L200.9 182.81L200.62 182.79L200.34 182.76L200.07 182.73L199.8 182.69L199.54 182.65L199.28 182.6L199.03 182.55L198.78 182.5L198.54 182.43L198.3 182.37L198.07 182.3L197.84 182.22L197.62 182.14L197.4 182.06L197.19 181.98L196.98 181.89L196.77 181.79L196.57 181.7L196.37 181.6L196.18 181.5L195.99 181.4L195.8 181.29L195.62 181.18L195.45 181.07L195.27 180.96L195.1 180.85L194.94 180.73L194.77 180.61L194.62 180.5L194.46 180.38L194.31 180.26L194.16 180.14L194.01 180.02L193.87 179.89L193.73 179.77L193.59 179.65L193.46 179.53L193.33 179.41L193.2 179.29L193.2 179.29L193.16 179.29L193.15 179.29L193.09 179.28L193.03 179.28L192.97 179.27L192.91 179.27L192.85 179.27L192.79 179.26L192.72 179.26L192.66 179.25L192.6 179.25L192.54 179.24L192.48 179.24L192.42 179.24L192.36 179.23L192.3 179.23L192.24 179.23L192.18 179.22L192.12 179.22L192.06 179.22L192 179.22L191.94 179.21L191.88 179.21L191.82 179.21L191.76 179.21L191.69 179.2L191.63 179.2L191.57 179.2L191.51 179.2L191.45 179.2L191.39 179.2L191.33 179.19L191.27 179.19L191.21 179.19L191.15 179.19L191.09 179.19L191.03 179.19L190.97 179.19L190.91 179.19L190.84 179.19L190.78 179.19L190.72 179.19L190.35 179.19L189.97 179.2L189.59 179.21L189.22 179.23L188.84 179.25L188.47 179.28L188.09 179.31L187.72 179.35L187.35 179.39L186.98 179.43L186.61 179.48L186.24 179.54L185.87 179.6L185.5 179.67L185.14 179.74L184.77 179.81L184.41 179.89L184.05 179.98L183.69 180.07L183.33 180.16L182.97 180.26L182.61 180.37L182.26 180.47L181.9 180.59L181.55 180.7L181.2 180.83L180.85 180.95L180.51 181.08L180.16 181.22L179.82 181.36L179.48 181.51L179.14 181.66L178.8 181.81L178.47 181.97L178.13 182.13L177.8 182.3L177.47 182.47L177.15 182.65L176.82 182.83L176.5 183.02L176.49 183.03L176.47 183.04L176.44 183.05L176.42 183.06L176.39 183.07L176.36 183.08L176.33 183.09L176.3 183.1L176.26 183.1L176.22 183.11L176.18 183.12L176.14 183.13L176.1 183.14L176.06 183.14L176.01 183.15L175.96 183.15L175.92 183.15L175.87 183.16L175.82 183.15L175.77 183.15L175.72 183.15L175.67 183.14L175.62 183.14L175.56 183.13L175.51 183.12L175.46 183.1L175.41 183.09L175.36 183.07L175.31 183.05L175.26 183.03L175.21 183L175.16 182.97L175.11 182.94L175.06 182.9L175.02 182.86L174.97 182.82L174.93 182.78L174.88 182.73L174.84 182.68L174.81 182.62L174.78 182.58L174.76 182.54L174.73 182.49L174.71 182.45L174.69 182.41L174.68 182.36L174.66 182.32L174.65 182.27L174.64 182.23L174.63 182.18L174.63 182.13L174.62 182.09L174.62 182.04L174.62 182L174.62 181.95L174.63 181.91L174.63 181.86L174.64 181.81L174.65 181.77L174.66 181.73L174.67 181.68L174.68 181.64L174.7 181.59L174.72 181.55L174.74 181.51L174.76 181.47L174.78 181.43L174.8 181.39L174.83 181.35L174.86 181.31L174.89 181.27L174.92 181.24L174.95 181.2L174.98 181.17L175.02 181.13L175.05 181.1L175.09 181.07L175.13 181.04L175.17 181.01L175.22 180.99L175.8 180.65L176.37 180.34L176.95 180.04L177.53 179.76L178.11 179.5L178.68 179.25L179.25 179.02L179.82 178.8L180.38 178.6L180.93 178.41L181.48 178.23L182.02 178.07L182.55 177.92L183.08 177.79L183.59 177.66L184.1 177.55L184.59 177.44L185.07 177.35L185.54 177.26L186 177.19L186.44 177.12L186.87 177.06L187.28 177.01L187.67 176.97L188.05 176.93L188.41 176.9L188.75 176.87L189.07 176.85L189.37 176.84L189.65 176.82L189.9 176.82L190.14 176.81L190.35 176.81L190.53 176.81L190.69 176.81L190.83 176.81L190.94 176.81L191.02 176.81L191.07 176.81L191.09 176.81L191.04 176.74L190.99 176.66L190.94 176.57L190.89 176.49L190.84 176.41L190.79 176.33L190.74 176.25L190.69 176.16L190.64 176.08L190.59 175.99L190.54 175.91L190.49 175.82L190.45 175.73L190.4 175.65L190.36 175.56L190.31 175.47L190.27 175.38L190.22 175.29L190.18 175.2L190.14 175.11L190.1 175.02L190.06 174.92L190.02 174.83L189.98 174.74L189.94 174.64L189.9 174.55L189.86 174.45L189.82 174.35L189.79 174.26L189.75 174.16L189.72 174.06L189.69 173.96L189.65 173.86L189.62 173.76L189.59 173.66L189.56 173.56L189.53 173.45L189.5 173.35L189.47 173.25L189.45 173.14L189.43 173.05L189.4 172.95L189.38 172.86L189.36 172.76L189.34 172.67L189.32 172.57L189.3 172.47L189.29 172.38L189.27 172.28L189.25 172.19L189.24 172.09L189.22 171.99L189.21 171.9L189.2 171.8L189.19 171.7L189.18 171.61L189.17 171.51L189.16 171.41L189.15 171.31L189.14 171.22L189.14 171.12L189.13 171.02L189.13 170.93L189.12 170.83L189.12 170.73L189.12 170.63L189.11 170.53L189.11 170.44L189.11 170.34L189.12 170.24L189.12 170.14L189.12 170.04L189.12 169.95L189.13 169.85L189.13 169.75L189.14 169.65L189.15 169.55L189.15 169.46L189.16 169.36L189.17 169.26L189.18 169.21L189.19 169.16L189.2 169.12L189.21 169.07L189.22 169.02L189.24 168.98L189.25 168.93L189.27 168.89L189.29 168.85L189.32 168.81L189.34 168.77L189.37 168.73L189.39 168.69L189.42 168.65L189.45 168.62L189.48 168.58L189.51 168.55L189.55 168.52L189.58 168.49L189.62 168.46L189.66 168.43L189.69 168.4L189.73 168.38L189.77 168.35L189.81 168.33L189.86 168.31L189.9 168.29L189.94 168.27L189.99 168.26L190.03 168.24L190.08 168.23L190.13 168.22L190.17 168.21L190.22 168.2L190.27 168.19L190.32 168.19L190.37 168.19L190.42 168.19L190.47 168.19L190.52 168.19L190.57 168.2L190.62 168.21L190.67 168.22L190.72 168.23L190.77 168.24L190.81 168.25L190.86 168.27L190.9 168.29L190.95 168.31L190.99 168.33L191.03 168.35L191.07 168.38L191.11 168.4L191.15 168.43L191.19 168.46L191.22 168.49L191.26 168.52L191.29 168.55L191.32 168.59L191.35 168.62L191.38 168.66L191.41 168.69L191.44 168.73L191.46 168.77L191.49 168.81L191.51 168.85L191.53 168.89L191.55 168.93L191.56 168.98L191.58 169.02L191.59 169.07L191.6 169.11L191.61 169.16L191.62 169.2L191.63 169.25L191.63 169.3L191.64 169.35L191.64 169.39L191.63 169.44L191.63 169.49L191.62 169.57L191.61 169.65L191.61 169.73L191.6 169.8L191.6 169.88L191.59 169.96L191.59 170.04L191.59 170.12L191.59 170.2L191.58 170.27L191.58 170.35L191.58 170.43L191.58 170.51L191.58 170.59L191.59 170.66L191.59 170.74L191.59 170.82L191.6 170.9L191.6 170.98L191.6 171.05L191.61 171.13L191.62 171.21L191.62 171.29L191.63 171.36L191.64 171.44L191.65 171.52L191.66 171.59L191.67 171.67L191.68 171.75L191.69 171.83L191.71 171.9L191.72 171.98L191.73 172.06L191.75 172.13L191.76 172.21L191.78 172.28L191.79 172.36L191.81 172.44L191.83 172.51L191.85 172.59L191.9 172.79L191.96 172.98L192.02 173.17L192.08 173.36L192.15 173.55L192.22 173.73L192.29 173.91L192.37 174.09L192.45 174.27L192.53 174.44L192.62 174.61L192.7 174.77L192.8 174.94L192.89 175.1L192.98 175.26L193.08 175.41L193.18 175.56L193.28 175.71L193.39 175.86L193.49 176L193.6 176.15L193.71 176.28L193.81 176.42L193.92 176.55L194.03 176.68L194.15 176.81L194.26 176.93L194.37 177.06L194.48 177.17L194.6 177.29L194.71 177.4L194.82 177.51L194.94 177.62L195.05 177.73L195.16 177.83L195.27 177.93L195.38 178.02L195.49 178.12L195.6 178.21L195.71 178.3L195.72 178.05L195.73 177.8L195.74 177.55L195.75 177.31L195.77 177.07L195.79 176.83L195.82 176.59L195.85 176.36L195.88 176.13L195.92 175.89L195.96 175.67L196 175.44L196.05 175.22L196.1 174.99L196.15 174.77L196.21 174.56L196.27 174.34L196.33 174.13L196.4 173.92L196.47 173.71L196.54 173.5L196.62 173.3L196.7 173.1L196.78 172.9L196.87 172.7L196.96 172.51L197.06 172.31L197.15 172.12L197.25 171.93L197.36 171.75L197.47 171.56L197.58 171.38L197.69 171.2L197.81 171.03L197.93 170.85L198.06 170.68L198.19 170.51L198.32 170.34L198.45 170.18L198.59 170.02L198.66 169.95L198.72 169.87L198.78 169.8L198.85 169.73L198.91 169.67L198.98 169.6L199.04 169.53L199.11 169.46L199.17 169.4L199.24 169.33L199.31 169.27L199.37 169.21L199.44 169.14L199.51 169.08L199.58 169.02L199.64 168.96L199.71 168.9L199.78 168.84L199.85 168.79L199.92 168.73L199.99 168.67L200.05 168.62L200.12 168.56L200.19 168.51L200.26 168.46L200.33 168.4L200.4 168.35L200.47 168.3L200.54 168.25L200.61 168.2L200.68 168.15L200.75 168.11L200.82 168.06L200.89 168.01L200.96 167.97L201.03 167.92L201.1 167.88L201.17 167.83L201.24 167.79L201.31 167.74L201.17 167.5L201.03 167.27L200.88 167.04L200.73 166.81L200.58 166.59L200.42 166.38L200.26 166.17L200.1 165.97L199.93 165.77L199.77 165.57L199.6 165.39L199.43 165.21L199.27 165.03L199.1 164.86L198.93 164.7L198.76 164.54L198.6 164.38L198.44 164.24L198.28 164.1L198.12 163.96L197.96 163.83L197.81 163.71L197.66 163.59L197.52 163.48L197.38 163.37L197.25 163.27L197.12 163.18L197 163.09L196.88 163.01L196.78 162.94L196.68 162.87L196.58 162.81L196.5 162.75L196.42 162.7L196.35 162.66L196.29 162.63L196.25 162.6L196.21 162.57L196.18 162.56L196.16 162.55L196.12 162.52L196.08 162.5L196.03 162.48L195.99 162.46L195.94 162.45L195.9 162.43L195.85 162.42L195.81 162.41L195.76 162.4L195.71 162.39L195.67 162.39L195.62 162.38L195.57 162.38L195.53 162.38L195.48 162.38L195.43 162.38L195.39 162.38L195.34 162.39L195.29 162.4L195.25 162.4L195.2 162.41L195.16 162.43L195.11 162.44L195.07 162.45L195.03 162.47L194.98 162.49L194.94 162.51L194.9 162.53L194.86 162.55L194.82 162.57L194.78 162.6L194.74 162.63L194.7 162.65L194.67 162.68L194.63 162.71L194.6 162.75L194.56 162.78L194.53 162.82L194.5 162.85L194.47 162.89L194.44 162.93L194.41 162.98L194.38 163.02L194.35 163.06L194.32 163.11L194.28 163.15L194.25 163.19L194.22 163.23L194.19 163.28L194.16 163.32L194.13 163.36L194.1 163.41L194.07 163.45L194.04 163.49L194.01 163.54L193.98 163.58L193.96 163.62L193.93 163.66L193.9 163.71L193.87 163.75L193.84 163.79L193.81 163.84L193.78 163.88L193.76 163.92L193.73 163.97L193.7 164.01L193.67 164.05L193.65 164.09L193.62 164.14L193.59 164.18L193.57 164.22L193.54 164.26L193.51 164.31L193.49 164.35L193.46 164.39L193.44 164.44L193.41 164.48L193.39 164.52L193.36 164.56L193.34 164.61L193.31 164.65L193.28 164.69L193.25 164.73L193.22 164.77L193.19 164.8L193.16 164.84L193.12 164.87L193.09 164.9L193.05 164.93L193.02 164.96L192.98 164.99L192.94 165.02L192.9 165.04L192.86 165.06L192.81 165.08L192.77 165.1L192.73 165.12L192.68 165.14L192.64 165.15L192.59 165.17L192.55 165.18L192.5 165.19L192.45 165.2L192.41 165.2L192.36 165.21L192.31 165.21L192.26 165.21L192.22 165.21L192.17 165.21L192.12 165.2L192.07 165.2L192.03 165.19L191.98 165.18L191.93 165.17L191.88 165.15L191.84 165.14L191.79 165.12L191.74 165.1L191.7 165.08L191.65 165.06L191.61 165.03L191.57 165.01L191.53 164.98L191.49 164.95L191.45 164.92L191.41 164.89L191.38 164.85L191.35 164.82L191.31 164.79L191.28 164.75L191.26 164.71L191.23 164.67L191.2 164.63L191.18 164.6L191.16 164.55L191.14 164.51L191.12 164.47L191.1 164.43L191.09 164.39L191.07 164.34L191.06 164.3L191.05 164.25L191.04 164.21L191.03 164.16L191.03 164.12L191.03 164.07L191.03 164.03L191.03 163.98L191.03 163.93L191.03 163.89L191.04 163.84L191.05 163.8L191.06 163.75L191.07 163.7L191.08 163.66L191.1 163.61L191.12 163.57L191.14 163.53L191.16 163.48L191.19 163.44L191.21 163.39L191.24 163.34L191.27 163.29L191.3 163.25L191.33 163.2L191.36 163.15L191.39 163.1L191.42 163.05L191.45 163.01L191.48 162.96L191.51 162.91L191.54 162.86L191.57 162.81L191.6 162.77L191.63 162.72L191.66 162.67L191.69 162.62L191.72 162.57L191.75 162.52L191.79 162.48L191.82 162.43L191.85 162.38L191.88 162.33L191.92 162.28L191.95 162.23L191.98 162.19L192.01 162.14L192.05 162.09L192.08 162.04L192.12 161.99L192.15 161.94L192.18 161.9L192.22 161.85L192.25 161.8L192.29 161.75L192.32 161.7L192.36 161.65L192.39 161.61L192.43 161.56L192.46 161.51L192.55 161.4L192.64 161.29L192.73 161.19L192.83 161.09L192.93 160.99L193.03 160.9L193.14 160.82L193.25 160.73L193.36 160.65L193.48 160.58L193.6 160.51L193.72 160.44L193.84 160.38L193.96 160.33L194.09 160.28L194.22 160.23L194.35 160.18L194.48 160.15L194.61 160.11L194.74 160.08L194.88 160.06L195.01 160.04L195.15 160.02L195.28 160.01L195.42 160.01L195.56 160L195.7 160.01L195.83 160.02ZM208.69 168.02L208.14 168.06L207.55 168.12L206.93 168.21L206.29 168.34L205.63 168.49L204.97 168.69L203.74 169.16L202.51 169.81L201.33 170.68L200.27 171.78L199.37 173.15L198.69 174.82L198.27 176.82L198.19 179.17L198.21 179.37L198.27 179.56L198.36 179.74L198.48 179.9L198.63 180.04L198.8 180.15L198.98 180.24L199.19 180.29L199.25 180.3L199.38 180.32L199.56 180.35L199.79 180.37L200.08 180.4L200.41 180.42L200.78 180.44L201.19 180.44L201.71 180.43L202.23 180.41L202.75 180.36L203.25 180.29L203.75 180.21L204.24 180.1L204.72 179.98L205.18 179.84L205.19 179.84L205.9 179.59L206.57 179.29L207.21 178.95L207.82 178.57L208.39 178.14L208.92 177.68L209.42 177.17L209.88 176.63L210.39 175.91L210.84 175.13L211.23 174.3L211.56 173.4L211.83 172.46L212.04 171.46L212.19 170.41L212.28 169.3L212.27 169.08L212.22 168.86L212.12 168.67L212 168.49L211.84 168.34L211.65 168.21L211.44 168.12L211.21 168.07L211.15 168.06L211.05 168.05L210.9 168.04L210.72 168.03L210.5 168.01L210.25 168L209.97 167.99L209.65 167.99L209.19 168L208.69 168.02Z" id="kbZzCPKo5"></path><path d="M174.27 181.6C171.95 183.45 169.65 185.46 167.45 187.6C165.91 189.08 165.44 191.81 166.3 193.77C167.38 196.21 169.95 195.32 170.72 194.57C172.74 192.61 174.85 190.76 176.98 189.07C178.59 187.78 179.3 185.07 178.55 183.01C177.8 180.94 175.89 180.32 174.27 181.6Z" id="a4MLuiV2K"></path></defs><g><g><g><use xlink:href="#c1yIqqijNL" opacity="1" fill="#000000" fill-opacity="1"></use></g><g><use xlink:href="#a1c9epXQsV" opacity="1" fill="#000000" fill-opacity="1"></use><g clip-path="url(#clipiOkmAJ3lC)"><use xlink:href="#a1c9epXQsV" opacity="1" fill-opacity="0" stroke="#747474" stroke-width="2" stroke-opacity="1"></use></g></g><g><use xlink:href="#b61eFLJBqz" opacity="1" fill="#000000" fill-opacity="1"></use><g clip-path="url(#clipapQAbFlXl)"><use xlink:href="#b61eFLJBqz" opacity="1" fill-opacity="0" stroke="#747474" stroke-width="2" stroke-opacity="1"></use></g></g><g><use xlink:href="#c1JEEXswbG" opacity="1" fill="#000000" fill-opacity="1"></use><g clip-path="url(#clipb2MRjyse9y)"><use xlink:href="#c1JEEXswbG" opacity="1" fill-opacity="0" stroke="#747474" stroke-width="2" stroke-opacity="1"></use></g></g><g><use xlink:href="#hEQK83cFC" opacity="1" fill="#000000" fill-opacity="1"></use><g clip-path="url(#clipa1i3MpDoBA)"><use xlink:href="#hEQK83cFC" opacity="1" fill-opacity="0" stroke="#747474" stroke-width="2" stroke-opacity="1"></use></g></g><g><use xlink:href="#b4fOWQg8FJ" opacity="1" fill="#000000" fill-opacity="1"></use><g clip-path="url(#clipe2qNBXCYj8)"><use xlink:href="#b4fOWQg8FJ" opacity="1" fill-opacity="0" stroke="#747474" stroke-width="2" stroke-opacity="1"></use></g></g><g><g><use xlink:href="#b1uNnyZKj3" opacity="1" fill="#8a3200" fill-opacity="1"></use><g><use xlink:href="#b1uNnyZKj3" opacity="1" fill-opacity="0" stroke="#593a3a" stroke-width="1" stroke-opacity="0"></use></g></g><g><use xlink:href="#kbZzCPKo5" opacity="1" fill="#8a3200" fill-opacity="1"></use><g><use xlink:href="#kbZzCPKo5" opacity="1" fill-opacity="0" stroke="#090909" stroke-width="1" stroke-opacity="0"></use></g></g><g><use xlink:href="#a4MLuiV2K" opacity="1" fill="#8a3200" fill-opacity="1"></use><g><use xlink:href="#a4MLuiV2K" opacity="1" fill-opacity="0" stroke="#090909" stroke-width="1" stroke-opacity="0"></use></g></g></g></g></g></svg>